<?xml version="1.0" standalone="no"?><!DOCTYPE svg PUBLIC "-//W3C//DTD SVG 1.1//EN" "http://www.w3.org/Graphics/SVG/1.1/DTD/svg11.dtd"><svg t="1599616938700" class="icon" viewBox="0 0 1024 1024" version="1.1" xmlns="http://www.w3.org/2000/svg" p-id="2661" xmlns:xlink="http://www.w3.org/1999/xlink" width="200" height="200"><defs><style type="text/css"></style></defs><path d="M512 1024C229.674667 1024 0 794.325333 0 512S229.674667 0 512 0s512 229.674667 512 512-229.674667 512-512 512z m0-981.333333C253.226667 42.666667 42.666667 253.226667 42.666667 512s210.56 469.333333 469.333333 469.333333 469.333333-210.56 469.333333-469.333333S770.773333 42.666667 512 42.666667z" p-id="2662"></path><path d="M512 810.666667a297.6 297.6 0 0 1-251.434667-137.813334 21.333333 21.333333 0 0 1 35.882667-23.04C343.936 723.797333 424.490667 768 512 768s168.064-44.202667 215.509333-118.186667a21.333333 21.333333 0 1 1 35.882667 23.04A297.472 297.472 0 0 1 512 810.666667zM277.248 512c-57.344 0-102.101333-24.661333-106.410667-58.624a21.333333 21.333333 0 1 1 42.368-5.376c0.768 6.229333 24.149333 21.333333 64.042667 21.333333C320.725333 469.333333 341.333333 452.224 341.333333 448c0-0.128-0.725333-13.397333-62.293333-20.992l-4.522667-0.554667C243.328 422.656 170.666667 413.781333 170.666667 362.666667 170.666667 326.186667 216.533333 298.666667 277.418667 298.666667c57.344 0 102.101333 24.661333 106.410666 58.581333a21.333333 21.333333 0 1 1-42.368 5.376C340.693333 356.437333 317.312 341.333333 277.418667 341.333333 236.032 341.333333 213.333333 357.333333 213.333333 362.666667c0 0.128 0.725333 13.397333 62.506667 20.949333l4.437333 0.554667C311.552 388.053333 384 396.970667 384 448c0 36.48-45.866667 64-106.752 64z" p-id="2663"></path><path d="M277.333333 554.666667a21.333333 21.333333 0 0 1-21.333333-21.333334v-256a21.333333 21.333333 0 0 1 42.666667 0v256a21.333333 21.333333 0 0 1-21.333334 21.333334zM746.581333 512c-57.344 0-102.101333-24.661333-106.410666-58.624a21.333333 21.333333 0 0 1 18.474666-23.850667 21.76 21.76 0 0 1 23.893334 18.474667c0.810667 6.186667 24.192 21.333333 64.085333 21.333333 43.434667 0 64.042667-17.109333 64.042667-21.333333 0-0.128-0.725333-13.397333-62.293334-20.992l-4.522666-0.597333C712.661333 422.656 640 413.781333 640 362.666667c0-36.48 45.866667-64 106.752-64 57.344 0 102.101333 24.661333 106.410667 58.581333a21.333333 21.333333 0 1 1-42.368 5.376C810.026667 356.437333 786.645333 341.333333 746.752 341.333333c-41.386667 0-64.085333 16-64.085333 21.333334 0 0.128 0.725333 13.397333 62.506666 20.949333l4.437334 0.554667c31.274667 3.882667 103.722667 12.8 103.722666 63.829333 0 36.48-45.866667 64-106.752 64z" p-id="2664"></path><path d="M746.666667 554.666667a21.333333 21.333333 0 0 1-21.333334-21.333334v-256a21.333333 21.333333 0 0 1 42.666667 0v256a21.333333 21.333333 0 0 1-21.333333 21.333334z" p-id="2665"></path></svg>