<?xml version="1.0" standalone="no"?><!DOCTYPE svg PUBLIC "-//W3C//DTD SVG 1.1//EN" "http://www.w3.org/Graphics/SVG/1.1/DTD/svg11.dtd"><svg t="1599617035688" class="icon" viewBox="0 0 1024 1024" version="1.1" xmlns="http://www.w3.org/2000/svg" p-id="12927" xmlns:xlink="http://www.w3.org/1999/xlink" width="200" height="200"><defs><style type="text/css"></style></defs><path d="M109.771624 1003.520044a39.27763 39.27763 0 0 1-25.819373-9.362266 30.281078 30.281078 0 0 1-10.751977-22.674237V743.13203c0-17.773676 16.383965-32.182788 36.57135-32.182788s36.57135 14.409112 36.571351 32.182788v228.278368a30.281078 30.281078 0 0 1-10.678835 22.74738 39.27763 39.27763 0 0 1-25.892516 9.435409z m270.627992 0a42.495909 42.495909 0 0 1-25.819373-8.265125 25.599945 25.599945 0 0 1-10.751977-20.0411V666.18591c0-15.652538 16.383965-28.306225 36.57135-28.306225s36.57135 12.653687 36.57135 28.306225v309.027909c0 15.652538-16.383965 28.379368-36.57135 28.379368z m263.313721 0a39.27763 39.27763 0 0 1-25.819373-9.362266 30.281078 30.281078 0 0 1-10.751977-22.674237V523.265073c0.292571-17.554248 16.53025-31.670789 36.57135-31.670789s36.278779 14.116541 36.571351 31.670789v448.218468a30.281078 30.281078 0 0 1-10.751977 22.674237 39.27763 39.27763 0 0 1-25.819374 9.435409z m270.627992 0a38.911917 38.911917 0 0 1-25.819373-9.508551 30.939362 30.939362 0 0 1-10.751977-23.039951V377.930527c0-18.066247 16.383965-32.621644 36.57135-32.621644s36.57135 14.62854 36.57135 32.621644v593.041015a30.939362 30.939362 0 0 1-10.751977 23.039951 38.911917 38.911917 0 0 1-25.819373 9.508551zM908.124199 0.002194H743.845694c-11.11769-0.146285-21.430811 6.802271-27.062799 18.285675a43.300479 43.300479 0 0 0 0 37.229635c5.631988 11.483404 15.945109 18.505103 27.062799 18.285675h101.01007L549.724967 371.567112 441.254343 232.01084c-18.505103-23.84452-49.444465-25.965659-70.14385-4.754276L84.025394 520.266222A39.570201 39.570201 0 0 0 73.200274 545.427311a41.618197 41.618197 0 0 0 7.387413 26.843371c11.263976 15.506252 30.719934 17.261677 43.88562 3.949706l278.673689-284.451962 108.397482 139.409987c18.431961 23.698235 49.225037 25.892516 69.924421 5.046847l307.199342-309.832479v117.02832c0.292571 20.333671 14.116541 36.644493 31.085648 36.644493 17.042249 0 30.86622-16.310822 31.085647-36.717635V50.909514c-0.146285-28.233082-19.23653-50.980462-42.788479-50.90732z" p-id="12928"></path></svg>